<?xml version="1.0" encoding="utf-8"?>
<!-- Generator: Adobe Illustrator 16.0.0, SVG Export Plug-In . SVG Version: 6.00 Build 0)  -->
<!DOCTYPE svg PUBLIC "-//W3C//DTD SVG 1.1//EN" "http://www.w3.org/Graphics/SVG/1.1/DTD/svg11.dtd">
<svg version="1.1" id="Layer_1" xmlns="http://www.w3.org/2000/svg" xmlns:xlink="http://www.w3.org/1999/xlink" x="0px" y="0px"
	 width="288px" height="337px" viewBox="0 0 288 337" enable-background="new 0 0 288 337" xml:space="preserve">
<g>
	<path fill="#77CDD5" d="M36.296,279.349h5.766l10.983,26.816l4.393-11.349l-6.407-15.468h5.766l10.525,26.816l10.891-26.816h5.674
		L69.61,312.663h-4.759l-4.667-11.349l-4.851,11.349h-4.759L36.296,279.349z"/>
	<path fill="#77CDD5" d="M92.133,279.349h5.4v33.314h-5.4V279.349z"/>
	<path fill="#77CDD5" d="M108.335,279.349h5.4v28.556h14.277v4.759h-19.677V279.349z"/>
	<path fill="#77CDD5" d="M135.613,307.904h19.037c2.836,0,4.759-1.922,4.759-4.76c0-2.837-1.923-4.759-4.759-4.759h-10.068
		c-5.674,0-9.519-4.027-9.519-9.519c0-5.033,3.844-9.519,9.519-9.519h17.297v4.76h-16.749c-2.836,0-4.758,1.922-4.758,4.759
		s1.922,4.76,4.758,4.76h10.068c5.674,0,9.518,4.026,9.518,9.518c0,4.942-3.844,9.519-9.518,9.519h-19.586V307.904z"/>
	<path fill="#77CDD5" d="M173.234,296.006c0-9.427,7.871-17.114,17.298-17.114c10.159,0,17.206,6.955,17.206,17.114
		c0,9.336-7.871,17.115-17.206,17.115C180.373,313.121,173.234,306.165,173.234,296.006z M202.247,296.006
		c0-6.772-4.942-12.264-11.715-12.264s-11.806,5.491-11.806,12.264s5.033,12.264,11.806,12.264S202.247,302.778,202.247,296.006z"/>
	<path fill="#77CDD5" d="M217.812,279.349h4.576l23.979,25.352v-25.352h5.4v33.314h-4.576l-23.979-25.352v25.352h-5.4V279.349z"/>
</g>
<g>
	<g>
		<g>
			<path fill="#213851" d="M175.004,216.485H117.87c-6.495,0-12.04-4.694-13.11-11.101l-12.468-55.398h108.291l-12.468,55.398
				C187.043,211.791,181.499,216.485,175.004,216.485z"/>
		</g>
		<g>
			<path fill="#213851" d="M92.52,127.021h-2.77v2.75h2.77c0.664,0,1.14-0.104,1.429-0.313c0.29-0.209,0.435-0.56,0.435-1.052
				c0-0.505-0.142-0.861-0.424-1.071C93.676,127.125,93.195,127.021,92.52,127.021z"/>
			<path fill="#213851" d="M180.225,121.87h-2.179v2.825h2.179c0.738,0,1.273-0.114,1.605-0.342
				c0.333-0.228,0.499-0.582,0.499-1.062c0-0.504-0.163-0.867-0.489-1.089C181.514,121.98,180.975,121.87,180.225,121.87z"/>
			<polygon fill="#213851" points="112.75,127.076 116.333,127.076 114.542,122.922 			"/>
			<path fill="#213851" d="M113.384,57.209c-5.149,0-9.323,4.608-9.323,10.294c0,5.686,4.174,10.294,9.323,10.294h-12.897
				c-7.157,0-12.96,6.408-12.96,14.313c0,7.904,5.803,14.312,12.96,14.312H87.443c-9.189,0-16.64,8.227-16.64,18.375l0,0
				c0,10.148,7.451,18.375,16.64,18.375H205.43c9.191,0,16.641-8.227,16.641-18.375l0,0c0-10.148-7.449-18.375-16.641-18.375
				h-13.045c7.159,0,12.962-6.408,12.962-14.312c0-7.905-5.803-14.313-12.962-14.313h-12.896c4.725,0,9.33-4.377,9.294-9.795
				c-0.067-9.905-6.795-17.937-14.171-22.423c-0.72-0.438-43.658-21.928-43.653-22.222c-0.099,5.317-3.541,30.556-9.322,30.629"/>
		</g>
	</g>
</g>
<g>
	<path fill="#FFFFFF" d="M134,165.586c0.264-0.132,0.429-0.214,0.495-0.248c0.066-0.033,0.121-0.049,0.165-0.049
		c0.154,0,0.286,0.049,0.396,0.148c0.11,0.099,0.165,0.226,0.165,0.379l-0.099,5.542l-0.165,0.198
		c-0.374,0.177-0.709,0.362-1.006,0.562c-0.297,0.197-0.633,0.352-1.006,0.461c0.352,0.198,0.693,0.385,1.023,0.561
		c0.33,0.177,0.66,0.342,0.989,0.496l0.231,0.527v0.429c0,0.353,0.005,0.698,0.017,1.039c0.011,0.341,0.017,0.688,0.017,1.04
		c0,0.483-0.011,0.951-0.033,1.401c-0.022,0.451-0.077,0.886-0.165,1.304l0.033,0.164c0,0.088-0.039,0.166-0.115,0.231
		c-0.078,0.065-0.171,0.099-0.281,0.099c-0.088,0-0.176-0.021-0.264-0.066c-0.99-0.615-1.979-1.182-2.969-1.698
		s-1.979-1.034-2.969-1.551s-1.996-1.05-3.019-1.601c-1.022-0.549-2.062-1.154-3.118-1.814c-0.176-0.065-0.308-0.152-0.396-0.264
		c-0.088-0.109-0.132-0.219-0.132-0.33c0-0.152,0.077-0.274,0.231-0.362c1.122-0.594,2.188-1.177,3.2-1.749
		c1.011-0.571,1.996-1.138,2.953-1.699c0.957-0.561,1.914-1.099,2.87-1.616C132.004,166.604,132.989,166.093,134,165.586z"/>
	<path fill="#FFFFFF" d="M141.126,184.556l9.204-23.917h2.244l-9.238,23.917H141.126z"/>
	<path fill="#FFFFFF" d="M158.215,165.751c0-0.286,0.143-0.429,0.429-0.429c0.044,0,0.12,0.033,0.231,0.099
		c1.121,0.506,2.188,1.034,3.199,1.583c1.012,0.55,2.013,1.105,3.002,1.666c0.99,0.562,2.008,1.116,3.053,1.666
		c1.044,0.55,2.182,1.056,3.414,1.518c0,0.242-0.017,0.474-0.049,0.692c-0.033,0.221-0.139,0.386-0.314,0.496
		c-2.178,1.231-4.211,2.396-6.104,3.496c-1.891,1.1-3.849,2.199-5.871,3.299h-0.231c-0.594,0-0.891-0.186-0.891-0.561
		c0.021-0.901,0.038-1.66,0.05-2.276c0.01-0.615,0.021-1.126,0.033-1.534c0.01-0.406,0.016-0.715,0.016-0.924s0-0.367,0-0.479
		c0-0.176,0.017-0.291,0.05-0.346c0.032-0.055,0.083-0.104,0.148-0.148l1.847-0.957l-1.847-1.056
		c-0.154-0.132-0.253-0.286-0.297-0.462l0.198-5.081L158.215,165.751z"/>
</g>
<g>
	<path fill="#C4C5C5" d="M60.18,243.32h4.348v22.994h11.497v3.832H60.18V243.32z"/>
	<path fill="#C4C5C5" d="M78.383,256.732c0-7.59,6.338-13.781,13.93-13.781c8.181,0,13.855,5.602,13.855,13.781
		c0,7.518-6.338,13.783-13.855,13.783C84.132,270.516,78.383,264.914,78.383,256.732z M101.747,256.732
		c0-5.453-3.98-9.875-9.434-9.875c-5.454,0-9.507,4.422-9.507,9.875c0,5.455,4.053,9.877,9.507,9.877
		C97.767,266.609,101.747,262.188,101.747,256.732z"/>
	<path fill="#C4C5C5" d="M110,256.732c0-7.59,6.338-13.781,13.93-13.781c4.053,0,7.37,1.548,9.802,3.906l-2.948,2.947
		c-1.695-1.842-4.054-2.947-6.854-2.947c-5.454,0-9.507,4.422-9.507,9.875c0,5.455,4.053,9.877,9.507,9.877
		c4.053,0,7.37-2.506,8.77-6.044h-8.77v-3.833h13.855c0,7.518-6.338,13.783-13.855,13.783C115.749,270.516,110,264.914,110,256.732z
		"/>
	<path fill="#C4C5C5" d="M148.324,243.32h3.832l11.497,26.826h-4.274l-1.621-3.832h-15.035l-1.548,3.832h-4.348L148.324,243.32z
		 M156.136,262.481l-5.896-14.15l-5.896,14.15H156.136z"/>
	<path fill="#C4C5C5" d="M166.602,243.32h3.685l19.31,20.414V243.32h4.348v26.826h-3.685l-19.31-20.415v20.415h-4.348V243.32z"/>
	<path fill="#3AC6F4" d="M207.872,262.629v-0.147h4.312v0.222c0,2.395,1.4,3.979,3.611,3.979c2.174,0,3.611-1.585,3.574-3.979
		V243.32h4.312v19.309c0,5.086-3.316,7.887-7.886,7.887C211.188,270.516,207.872,267.715,207.872,262.629z"/>
</g>
<g>
	<g>
		
			<ellipse transform="matrix(0.7068 -0.7074 0.7074 0.7068 -97.6753 224.1511)" fill="#213851" cx="221.567" cy="229.906" rx="1.56" ry="1.601"/>
	</g>
	<g>
		<g>
			<g>
				<path fill="#213851" d="M227.961,225.777l-2.096,2.096c-2.416-2.416-6.297-2.467-8.65-0.113l-2.151-2.151
					C218.573,222.1,224.359,222.176,227.961,225.777z"/>
			</g>
		</g>
		<g>
			<g>
				<path fill="#213851" d="M231.959,221.779l-2.096,2.096c-4.679-4.679-12.193-4.777-16.753-0.219l-2.151-2.15
					C216.674,215.791,226.094,215.914,231.959,221.779z"/>
			</g>
		</g>
		<g>
			<g>
				<path fill="#213851" d="M235.922,217.817l-2.096,2.095c-6.922-6.921-18.039-7.066-24.783-0.323l-2.151-2.15
					C214.791,209.539,227.813,209.709,235.922,217.817z"/>
			</g>
		</g>
	</g>
</g>
<circle fill="#213851" cx="221.378" cy="231.843" r="3.028"/>
</svg>
