<?xml version="1.0" encoding="utf-8"?>
<!-- Generator: Adobe Illustrator 16.0.0, SVG Export Plug-In . SVG Version: 6.00 Build 0)  -->
<!DOCTYPE svg PUBLIC "-//W3C//DTD SVG 1.1//EN" "http://www.w3.org/Graphics/SVG/1.1/DTD/svg11.dtd">
<svg version="1.1" id="Layer_1" xmlns="http://www.w3.org/2000/svg" xmlns:xlink="http://www.w3.org/1999/xlink" x="0px" y="0px"
	 width="1440px" height="737px" viewBox="0 0 1440 737" enable-background="new 0 0 1440 737" xml:space="preserve">
<g>
	<path fill="#77CDD5" d="M266.296,388.349h5.766l10.983,26.816l4.393-11.349l-6.407-15.468h5.766l10.525,26.816l10.891-26.816h5.674
		l-14.277,33.314h-4.759l-4.667-11.349l-4.851,11.349h-4.759L266.296,388.349z"/>
	<path fill="#77CDD5" d="M322.133,388.349h5.4v33.314h-5.4V388.349z"/>
	<path fill="#77CDD5" d="M338.335,388.349h5.4v28.556h14.277v4.759h-19.677V388.349z"/>
	<path fill="#77CDD5" d="M365.613,416.904h19.037c2.837,0,4.759-1.922,4.759-4.76c0-2.837-1.922-4.759-4.759-4.759h-10.067
		c-5.674,0-9.519-4.027-9.519-9.519c0-5.033,3.844-9.519,9.519-9.519h17.297v4.76h-16.749c-2.837,0-4.759,1.922-4.759,4.759
		s1.922,4.76,4.759,4.76h10.067c5.675,0,9.519,4.026,9.519,9.518c0,4.942-3.844,9.519-9.519,9.519h-19.585V416.904z"/>
	<path fill="#77CDD5" d="M403.234,405.006c0-9.427,7.871-17.114,17.298-17.114c10.159,0,17.206,6.955,17.206,17.114
		c0,9.336-7.871,17.115-17.206,17.115C410.373,422.121,403.234,415.165,403.234,405.006z M432.247,405.006
		c0-6.772-4.942-12.264-11.715-12.264s-11.806,5.491-11.806,12.264s5.034,12.264,11.806,12.264S432.247,411.778,432.247,405.006z"/>
	<path fill="#77CDD5" d="M447.812,388.349h4.576l23.979,25.352v-25.352h5.4v33.314h-4.576l-23.979-25.352v25.352h-5.4V388.349z"/>
</g>
<g>
	<g>
		<g>
			<path fill="#213851" d="M405.004,325.485H347.87c-6.495,0-12.04-4.694-13.11-11.101l-12.468-55.398h108.291l-12.468,55.398
				C417.043,320.791,411.499,325.485,405.004,325.485z"/>
		</g>
		<g>
			<path fill="#213851" d="M322.52,236.021h-2.77v2.75h2.77c0.664,0,1.14-0.104,1.429-0.313c0.29-0.209,0.435-0.56,0.435-1.052
				c0-0.505-0.142-0.861-0.424-1.071C323.676,236.125,323.195,236.021,322.52,236.021z"/>
			<path fill="#213851" d="M410.224,230.87h-2.178v2.825h2.178c0.739,0,1.274-0.114,1.606-0.342
				c0.333-0.228,0.499-0.582,0.499-1.062c0-0.504-0.163-0.867-0.489-1.089C411.513,230.98,410.975,230.87,410.224,230.87z"/>
			<polygon fill="#213851" points="342.75,236.076 346.333,236.076 344.542,231.922 			"/>
			<path fill="#213851" d="M343.384,166.209c-5.149,0-9.323,4.608-9.323,10.294c0,5.686,4.174,10.294,9.323,10.294h-12.897
				c-7.157,0-12.96,6.408-12.96,14.313c0,7.904,5.803,14.312,12.96,14.312h-13.044c-9.189,0-16.64,8.227-16.64,18.375l0,0
				c0,10.148,7.451,18.375,16.64,18.375H435.43c9.191,0,16.641-8.227,16.641-18.375l0,0c0-10.148-7.45-18.375-16.641-18.375h-13.044
				c7.159,0,12.961-6.408,12.961-14.312c0-7.905-5.803-14.313-12.961-14.313h-12.896c4.724,0,9.33-4.377,9.293-9.795
				c-0.067-9.905-6.795-17.937-14.171-22.423c-0.72-0.438-43.658-21.928-43.653-22.222c-0.099,5.317-3.541,30.556-9.322,30.629"/>
			<path fill="#213851" d="M323.571,233.104c0.295-0.198,0.442-0.511,0.442-0.941c0-0.444-0.151-0.77-0.452-0.979
				c-0.302-0.208-0.768-0.313-1.395-0.313h-2.418v2.529h2.418C322.807,233.399,323.276,233.301,323.571,233.104z"/>
		</g>
	</g>
</g>
<text transform="matrix(1 0 0 1 351.6621 292.2363)"><tspan x="0" y="0" fill="#FFFFFF" font-family="'Rafika-Regular'" font-size="32.9904" letter-spacing="5">&lt;</tspan><tspan x="19.497" y="0" fill="#FFFFFF" font-family="'MyriadPro-Regular'" font-size="32.9904" letter-spacing="5">/</tspan><tspan x="36.091" y="0" fill="#FFFFFF" font-family="'Rafika-Regular'" font-size="32.9904" letter-spacing="5">&gt;</tspan></text>
<g>
	<path fill="#C4C5C5" d="M290.18,352.32h4.348v22.995h11.497v3.832H290.18V352.32z"/>
	<path fill="#C4C5C5" d="M308.383,365.733c0-7.591,6.338-13.782,13.93-13.782c8.181,0,13.855,5.601,13.855,13.782
		c0,7.517-6.338,13.783-13.855,13.783C314.132,379.516,308.383,373.914,308.383,365.733z M331.747,365.733
		c0-5.454-3.98-9.875-9.434-9.875c-5.454,0-9.507,4.422-9.507,9.875c0,5.455,4.053,9.876,9.507,9.876
		C327.767,375.609,331.747,371.188,331.747,365.733z"/>
	<path fill="#C4C5C5" d="M340,365.733c0-7.591,6.338-13.782,13.93-13.782c4.053,0,7.37,1.548,9.802,3.906l-2.948,2.948
		c-1.695-1.842-4.054-2.948-6.854-2.948c-5.454,0-9.507,4.422-9.507,9.875c0,5.455,4.053,9.876,9.507,9.876
		c4.053,0,7.37-2.506,8.77-6.044h-8.77v-3.833h13.855c0,7.517-6.338,13.783-13.855,13.783C345.749,379.516,340,373.914,340,365.733z
		"/>
	<path fill="#C4C5C5" d="M378.324,352.32h3.833l11.497,26.827h-4.275l-1.621-3.832h-15.035l-1.548,3.832h-4.348L378.324,352.32z
		 M386.136,371.481l-5.896-14.15l-5.896,14.15H386.136z"/>
	<path fill="#C4C5C5" d="M396.601,352.32h3.685l19.309,20.415V352.32h4.349v26.827h-3.685l-19.31-20.415v20.415h-4.348V352.32z"/>
	<path fill="#3AC6F4" d="M437.872,371.629v-0.147h4.312v0.222c0,2.395,1.4,3.979,3.611,3.979c2.174,0,3.611-1.585,3.574-3.979
		V352.32h4.312v19.309c0,5.086-3.316,7.887-7.886,7.887C441.188,379.516,437.872,376.715,437.872,371.629z"/>
</g>
<g>
	<g>
		
			<ellipse transform="matrix(0.707 -0.7073 0.7073 0.707 -107.3643 418.6937)" fill="#213851" cx="451.568" cy="338.906" rx="1.56" ry="1.601"/>
	</g>
	<g>
		<g>
			<g>
				<path fill="#213851" d="M457.961,334.777l-2.096,2.096c-2.416-2.416-6.296-2.466-8.65-0.113l-2.151-2.151
					C448.573,331.1,454.359,331.175,457.961,334.777z"/>
			</g>
		</g>
		<g>
			<g>
				<path fill="#213851" d="M461.959,330.779l-2.096,2.096c-4.679-4.679-12.194-4.777-16.753-0.219l-2.151-2.151
					C446.674,324.791,456.094,324.914,461.959,330.779z"/>
			</g>
		</g>
		<g>
			<g>
				<path fill="#213851" d="M465.922,326.817l-2.096,2.095c-6.922-6.921-18.039-7.066-24.783-0.324l-2.151-2.15
					C444.791,318.539,457.813,318.709,465.922,326.817z"/>
			</g>
		</g>
	</g>
</g>
<circle fill="#213851" cx="451.378" cy="340.843" r="3.029"/>
</svg>
