<?xml version="1.0" encoding="utf-8"?>
<!-- Generator: Adobe Illustrator 16.0.0, SVG Export Plug-In . SVG Version: 6.00 Build 0)  -->
<!DOCTYPE svg PUBLIC "-//W3C//DTD SVG 1.1//EN" "http://www.w3.org/Graphics/SVG/1.1/DTD/svg11.dtd">
<svg version="1.1" id="Layer_1" xmlns="http://www.w3.org/2000/svg" xmlns:xlink="http://www.w3.org/1999/xlink" x="0px" y="0px"
	 width="1440px" height="737px" viewBox="0 0 1440 737" enable-background="new 0 0 1440 737" xml:space="preserve">
<circle fill="#213851" cx="377.338" cy="286.167" r="246.512"/>
<text transform="matrix(1 0 0 1 265.7471 421.6631)"><tspan x="0" y="0" fill="#77CDD5" font-family="'Reross-Quadratic'" font-size="45.7685" letter-spacing="4">WILSO</tspan><tspan x="178.954" y="0" fill="#77CDD5" font-family="'Reross-Quadratic'" font-size="45.7685" letter-spacing="1">N</tspan></text>
<g>
	<g>
		<path fill="#FFFCF4" d="M405.004,325.485H347.87c-6.495,0-12.04-4.694-13.11-11.101l-12.468-55.398h108.291l-12.468,55.398
			C417.043,320.791,411.499,325.485,405.004,325.485z"/>
	</g>
	<g>
		<path fill="#FFFCF4" d="M322.52,236.021h-2.77v2.75h2.77c0.664,0,1.14-0.104,1.429-0.313c0.29-0.209,0.435-0.56,0.435-1.052
			c0-0.505-0.142-0.861-0.424-1.071C323.676,236.125,323.195,236.021,322.52,236.021z"/>
		<path fill="#FFFCF4" d="M410.224,230.87h-2.178v2.825h2.178c0.739,0,1.274-0.114,1.606-0.342c0.333-0.228,0.499-0.582,0.499-1.062
			c0-0.504-0.163-0.867-0.489-1.089C411.513,230.98,410.975,230.87,410.224,230.87z"/>
		<polygon fill="#FFFCF4" points="342.75,236.076 346.333,236.076 344.542,231.922 		"/>
		<path fill="#FFFCF4" d="M343.384,166.209c-5.149,0-9.323,4.608-9.323,10.294c0,5.686,4.174,10.294,9.323,10.294h-12.897
			c-7.157,0-12.96,6.408-12.96,14.313c0,7.904,5.803,14.312,12.96,14.312h-13.044c-9.189,0-16.64,8.227-16.64,18.375l0,0
			c0,10.148,7.451,18.375,16.64,18.375H435.43c9.191,0,16.641-8.227,16.641-18.375l0,0c0-10.148-7.45-18.375-16.641-18.375h-13.044
			c7.159,0,12.961-6.408,12.961-14.312c0-7.905-5.803-14.313-12.961-14.313h-12.896c4.724,0,9.33-4.377,9.293-9.795
			c-0.067-9.905-6.795-17.937-14.171-22.423c-0.72-0.438-43.658-21.928-43.653-22.222c-0.099,5.317-3.541,30.556-9.322,30.629"/>
		<path fill="#FFFCF4" d="M323.571,233.104c0.295-0.198,0.442-0.511,0.442-0.941c0-0.444-0.151-0.77-0.452-0.979
			c-0.302-0.208-0.768-0.313-1.395-0.313h-2.418v2.529h2.418C322.807,233.399,323.276,233.301,323.571,233.104z"/>
	</g>
</g>
<text transform="matrix(1 0 0 1 351.6621 292.2363)"><tspan x="0" y="0" fill="#213851" font-family="'Rafika-Regular'" font-size="32.9904" letter-spacing="5">&lt;</tspan><tspan x="19.497" y="0" fill="#213851" font-family="'MyriadPro-Regular'" font-size="32.9904" letter-spacing="5">/</tspan><tspan x="36.091" y="0" fill="#213851" font-family="'Rafika-Regular'" font-size="32.9904" letter-spacing="5">&gt;</tspan></text>
<text transform="matrix(1 0 0 1 287.6743 379.1465)"><tspan x="0" y="0" fill="#C4C5C5" font-family="'Reross-Quadratic'" font-size="36.8497">LOGAN</tspan><tspan x="140.985" y="0" fill="#EEF1F4" font-family="'Reross-Quadratic'" font-size="36.8497"> </tspan><tspan x="151.303" y="0" fill="#3AC6F4" font-family="'Reross-Quadratic'" font-size="36.8497">J</tspan></text>
<g>
	<g>
		
			<ellipse transform="matrix(0.707 -0.7073 0.7073 0.707 -107.3643 418.6937)" fill="#FEFAEA" cx="451.568" cy="338.906" rx="1.56" ry="1.601"/>
	</g>
	<g>
		<g>
			<g>
				<path fill="#FEFAEA" d="M457.961,334.777l-2.096,2.096c-2.416-2.416-6.296-2.466-8.65-0.113l-2.151-2.151
					C448.573,331.1,454.359,331.175,457.961,334.777z"/>
			</g>
		</g>
		<g>
			<g>
				<path fill="#FEFAEA" d="M461.959,330.779l-2.096,2.096c-4.679-4.679-12.194-4.777-16.753-0.219l-2.151-2.151
					C446.674,324.791,456.094,324.914,461.959,330.779z"/>
			</g>
		</g>
		<g>
			<g>
				<path fill="#FEFAEA" d="M465.922,326.817l-2.096,2.095c-6.922-6.921-18.039-7.066-24.783-0.324l-2.151-2.15
					C444.791,318.539,457.813,318.709,465.922,326.817z"/>
			</g>
		</g>
	</g>
</g>
<circle fill="#FEFAEA" cx="451.378" cy="340.843" r="3.029"/>
</svg>
